<?xml version="1.0" encoding="UTF-8"?><svg id="Layer_1" xmlns="http://www.w3.org/2000/svg" viewBox="0 0 1024 1024"><path d="M867.07,409.6c-27.5,0-50,22.5-50,50v104.8c0,27.5,22.5,50,50,50h136.93c11.05,0,20,8.95,20,20v164.8c0,11.05-8.95,20-20,20h-136.93c-27.5,0-50,22.5-50,50v134.8c0,11.05-8.95,20-20,20h-164.8c-11.05,0-20-8.95-20-20v-134.8c0-27.5-22.5-50-50-50h-104.8c-27.5,0-50,22.5-50,50v134.8c0,11.05-8.95,20-20,20h-164.8c-11.05,0-20-8.95-20-20v-134.8c0-27.5-22.5-50-50-50H20c-11.05,0-20-8.95-20-20v-164.8c0-11.05,8.95-20,20-20h132.67c27.5,0,50-22.5,50-50v-104.8c0-27.5-22.5-50-50-50H20c-11.05,0-20-8.95-20-20v-164.8c0-11.05,8.95-20,20-20h132.67c27.5,0,50-22.5,50-50V20c0-11.05,8.95-20,20-20h164.8c11.05,0,20,8.95,20,20v134.8c0,27.5,22.5,50,50,50h104.8c27.5,0,50-22.5,50-50V20c0-11.05,8.95-20,20-20h164.8c11.05,0,20,8.95,20,20v134.8c0,27.5,22.5,50,50,50h136.93c11.05,0,20,8.95,20,20v164.8c0,11.05-8.95,20-20,20h-136.93Z" style="fill:#7b9bc5;"/><polyline points="399.5 387 624.5 512.83 406.49 637" style="fill:#7b9bc5; stroke:#d0d8e4; stroke-linecap:round; stroke-linejoin:round; stroke-width:95px;"/></svg>